<svg id="visual" viewBox="0 0 675 900" width="675" height="900" xmlns="http://www.w3.org/2000/svg" xmlns:xlink="http://www.w3.org/1999/xlink" version="1.1"><rect x="0" y="0" width="675" height="900" fill="#072227"></rect><defs><linearGradient id="grad1_0" x1="0%" y1="100%" x2="100%" y2="0%"><stop offset="30%" stop-color="#4fbdba" stop-opacity="1"></stop><stop offset="70%" stop-color="#4fbdba" stop-opacity="1"></stop></linearGradient></defs><defs><linearGradient id="grad1_1" x1="0%" y1="100%" x2="100%" y2="0%"><stop offset="30%" stop-color="#4fbdba" stop-opacity="1"></stop><stop offset="70%" stop-color="#42a4a5" stop-opacity="1"></stop></linearGradient></defs><defs><linearGradient id="grad1_2" x1="0%" y1="100%" x2="100%" y2="0%"><stop offset="30%" stop-color="#358d90" stop-opacity="1"></stop><stop offset="70%" stop-color="#42a4a5" stop-opacity="1"></stop></linearGradient></defs><defs><linearGradient id="grad1_3" x1="0%" y1="100%" x2="100%" y2="0%"><stop offset="30%" stop-color="#358d90" stop-opacity="1"></stop><stop offset="70%" stop-color="#2a757a" stop-opacity="1"></stop></linearGradient></defs><defs><linearGradient id="grad1_4" x1="0%" y1="100%" x2="100%" y2="0%"><stop offset="30%" stop-color="#205f65" stop-opacity="1"></stop><stop offset="70%" stop-color="#2a757a" stop-opacity="1"></stop></linearGradient></defs><defs><linearGradient id="grad1_5" x1="0%" y1="100%" x2="100%" y2="0%"><stop offset="30%" stop-color="#205f65" stop-opacity="1"></stop><stop offset="70%" stop-color="#174a50" stop-opacity="1"></stop></linearGradient></defs><defs><linearGradient id="grad1_6" x1="0%" y1="100%" x2="100%" y2="0%"><stop offset="30%" stop-color="#0f353b" stop-opacity="1"></stop><stop offset="70%" stop-color="#174a50" stop-opacity="1"></stop></linearGradient></defs><defs><linearGradient id="grad1_7" x1="0%" y1="100%" x2="100%" y2="0%"><stop offset="30%" stop-color="#0f353b" stop-opacity="1"></stop><stop offset="70%" stop-color="#072227" stop-opacity="1"></stop></linearGradient></defs><defs><linearGradient id="grad2_0" x1="0%" y1="100%" x2="100%" y2="0%"><stop offset="30%" stop-color="#4fbdba" stop-opacity="1"></stop><stop offset="70%" stop-color="#4fbdba" stop-opacity="1"></stop></linearGradient></defs><defs><linearGradient id="grad2_1" x1="0%" y1="100%" x2="100%" y2="0%"><stop offset="30%" stop-color="#42a4a5" stop-opacity="1"></stop><stop offset="70%" stop-color="#4fbdba" stop-opacity="1"></stop></linearGradient></defs><defs><linearGradient id="grad2_2" x1="0%" y1="100%" x2="100%" y2="0%"><stop offset="30%" stop-color="#42a4a5" stop-opacity="1"></stop><stop offset="70%" stop-color="#358d90" stop-opacity="1"></stop></linearGradient></defs><defs><linearGradient id="grad2_3" x1="0%" y1="100%" x2="100%" y2="0%"><stop offset="30%" stop-color="#2a757a" stop-opacity="1"></stop><stop offset="70%" stop-color="#358d90" stop-opacity="1"></stop></linearGradient></defs><defs><linearGradient id="grad2_4" x1="0%" y1="100%" x2="100%" y2="0%"><stop offset="30%" stop-color="#2a757a" stop-opacity="1"></stop><stop offset="70%" stop-color="#205f65" stop-opacity="1"></stop></linearGradient></defs><defs><linearGradient id="grad2_5" x1="0%" y1="100%" x2="100%" y2="0%"><stop offset="30%" stop-color="#174a50" stop-opacity="1"></stop><stop offset="70%" stop-color="#205f65" stop-opacity="1"></stop></linearGradient></defs><defs><linearGradient id="grad2_6" x1="0%" y1="100%" x2="100%" y2="0%"><stop offset="30%" stop-color="#174a50" stop-opacity="1"></stop><stop offset="70%" stop-color="#0f353b" stop-opacity="1"></stop></linearGradient></defs><defs><linearGradient id="grad2_7" x1="0%" y1="100%" x2="100%" y2="0%"><stop offset="30%" stop-color="#072227" stop-opacity="1"></stop><stop offset="70%" stop-color="#0f353b" stop-opacity="1"></stop></linearGradient></defs><g transform="translate(675, 900)"><path d="M-506.2 0C-474.4 -55.6 -442.6 -111.2 -423.1 -175.3C-403.7 -239.4 -396.7 -312 -358 -358C-319.2 -403.9 -248.6 -423.2 -183.7 -443.5C-118.7 -463.7 -59.4 -485 0 -506.2L0 0Z" fill="#0b2b31"></path><path d="M-443 0C-415.1 -48.6 -387.2 -97.3 -370.2 -153.4C-353.3 -209.5 -347.1 -273 -313.2 -313.2C-279.3 -353.4 -217.6 -370.3 -160.7 -388C-103.9 -405.8 -51.9 -424.4 0 -443L0 0Z" fill="#133f45"></path><path d="M-379.7 0C-355.8 -41.7 -331.9 -83.4 -317.4 -131.5C-302.8 -179.5 -297.6 -234 -268.5 -268.5C-239.4 -302.9 -186.5 -317.4 -137.8 -332.6C-89 -347.8 -44.5 -363.7 0 -379.7L0 0Z" fill="#1c545a"></path><path d="M-316.4 0C-296.5 -34.7 -276.6 -69.5 -264.5 -109.5C-252.3 -149.6 -248 -195 -223.7 -223.7C-199.5 -252.5 -155.4 -264.5 -114.8 -277.2C-74.2 -289.8 -37.1 -303.1 0 -316.4L0 0Z" fill="#256a70"></path><path d="M-253.1 0C-237.2 -27.8 -221.3 -55.6 -211.6 -87.6C-201.9 -119.7 -198.4 -156 -179 -179C-159.6 -202 -124.3 -211.6 -91.8 -221.7C-59.4 -231.9 -29.7 -242.5 0 -253.1L0 0Z" fill="#308185"></path><path d="M-189.8 0C-177.9 -20.8 -166 -41.7 -158.7 -65.7C-151.4 -89.8 -148.8 -117 -134.2 -134.2C-119.7 -151.5 -93.2 -158.7 -68.9 -166.3C-44.5 -173.9 -22.3 -181.9 0 -189.8L0 0Z" fill="#3b989a"></path><path d="M-126.6 0C-118.6 -13.9 -110.6 -27.8 -105.8 -43.8C-100.9 -59.8 -99.2 -78 -89.5 -89.5C-79.8 -101 -62.2 -105.8 -45.9 -110.9C-29.7 -115.9 -14.8 -121.2 0 -126.6L0 0Z" fill="#48b1b0"></path><path d="M-63.3 0C-59.3 -6.9 -55.3 -13.9 -52.9 -21.9C-50.5 -29.9 -49.6 -39 -44.7 -44.7C-39.9 -50.5 -31.1 -52.9 -23 -55.4C-14.8 -58 -7.4 -60.6 0 -63.3L0 0Z" fill="#4fbdba"></path></g><g transform="translate(0, 0)"><path d="M506.3 0C471.6 58.2 437 116.5 407.4 168.8C377.9 221 353.4 267.4 321 321C288.7 374.7 248.5 435.6 193.7 467.7C138.9 499.8 69.5 503 0 506.3L0 0Z" fill="#0b2b31"></path><path d="M443 0C412.7 51 382.4 101.9 356.5 147.7C330.6 193.4 309.2 234 280.9 280.9C252.6 327.8 217.5 381.2 169.5 409.2C121.6 437.3 60.8 440.1 0 443L0 0Z" fill="#133f45"></path><path d="M379.7 0C353.7 43.7 327.7 87.4 305.6 126.6C283.4 165.8 265 200.5 240.8 240.8C216.5 281 186.4 326.7 145.3 350.8C104.2 374.9 52.1 377.3 0 379.7L0 0Z" fill="#1c545a"></path><path d="M316.4 0C294.8 36.4 273.1 72.8 254.6 105.5C236.2 138.2 220.8 167.1 200.6 200.6C180.4 234.2 155.3 272.3 121.1 292.3C86.8 312.4 43.4 314.4 0 316.4L0 0Z" fill="#256a70"></path><path d="M253.1 0C235.8 29.1 218.5 58.2 203.7 84.4C188.9 110.5 176.7 133.7 160.5 160.5C144.3 187.3 124.3 217.8 96.9 233.9C69.5 249.9 34.7 251.5 0 253.1L0 0Z" fill="#308185"></path><path d="M189.8 0C176.9 21.8 163.9 43.7 152.8 63.3C141.7 82.9 132.5 100.3 120.4 120.4C108.3 140.5 93.2 163.4 72.7 175.4C52.1 187.4 26 188.6 0 189.8L0 0Z" fill="#3b989a"></path><path d="M126.6 0C117.9 14.6 109.2 29.1 101.9 42.2C94.5 55.3 88.3 66.8 80.3 80.3C72.2 93.7 62.1 108.9 48.4 116.9C34.7 125 17.4 125.8 0 126.6L0 0Z" fill="#48b1b0"></path><path d="M63.3 0C59 7.3 54.6 14.6 50.9 21.1C47.2 27.6 44.2 33.4 40.1 40.1C36.1 46.8 31.1 54.5 24.2 58.5C17.4 62.5 8.7 62.9 0 63.3L0 0Z" fill="#4fbdba"></path></g></svg>