<svg id="visual" viewBox="0 0 900 600" width="900" height="600" xmlns="http://www.w3.org/2000/svg" xmlns:xlink="http://www.w3.org/1999/xlink" version="1.1"><rect x="0" y="0" width="900" height="600" fill="#35858B"></rect><path d="M0 380L113 386L225 393L338 395L450 401L563 353L675 366L788 362L900 367L900 601L788 601L675 601L563 601L450 601L338 601L225 601L113 601L0 601Z" fill="#35858b"></path><path d="M0 415L113 416L225 445L338 445L450 413L563 448L675 439L788 405L900 421L900 601L788 601L675 601L563 601L450 601L338 601L225 601L113 601L0 601Z" fill="#2b7076"></path><path d="M0 463L113 479L225 441L338 450L450 476L563 470L675 477L788 479L900 436L900 601L788 601L675 601L563 601L450 601L338 601L225 601L113 601L0 601Z" fill="#215b62"></path><path d="M0 479L113 497L225 477L338 493L450 501L563 509L675 466L788 471L900 476L900 601L788 601L675 601L563 601L450 601L338 601L225 601L113 601L0 601Z" fill="#17474e"></path><path d="M0 516L113 531L225 502L338 520L450 531L563 529L675 538L788 532L900 541L900 601L788 601L675 601L563 601L450 601L338 601L225 601L113 601L0 601Z" fill="#0f343a"></path><path d="M0 569L113 546L225 558L338 543L450 553L563 563L675 543L788 565L900 572L900 601L788 601L675 601L563 601L450 601L338 601L225 601L113 601L0 601Z" fill="#072227"></path></svg>