<svg id="visual" viewBox="0 0 960 300" width="960" height="300" xmlns="http://www.w3.org/2000/svg" xmlns:xlink="http://www.w3.org/1999/xlink" version="1.1"><path d="M0 190L22.8 191.8C45.7 193.7 91.3 197.3 137 198.2C182.7 199 228.3 197 274 199.3C319.7 201.7 365.3 208.3 411.2 206.7C457 205 503 195 548.8 192.2C594.7 189.3 640.3 193.7 686 196.5C731.7 199.3 777.3 200.7 823 197.2C868.7 193.7 914.3 185.3 937.2 181.2L960 177L960 301L937.2 301C914.3 301 868.7 301 823 301C777.3 301 731.7 301 686 301C640.3 301 594.7 301 548.8 301C503 301 457 301 411.2 301C365.3 301 319.7 301 274 301C228.3 301 182.7 301 137 301C91.3 301 45.7 301 22.8 301L0 301Z" fill="#35858B"></path><path d="M0 222L22.8 222.2C45.7 222.3 91.3 222.7 137 221.2C182.7 219.7 228.3 216.3 274 217.7C319.7 219 365.3 225 411.2 223.3C457 221.7 503 212.3 548.8 207.5C594.7 202.7 640.3 202.3 686 201.7C731.7 201 777.3 200 823 200.3C868.7 200.7 914.3 202.3 937.2 203.2L960 204L960 301L937.2 301C914.3 301 868.7 301 823 301C777.3 301 731.7 301 686 301C640.3 301 594.7 301 548.8 301C503 301 457 301 411.2 301C365.3 301 319.7 301 274 301C228.3 301 182.7 301 137 301C91.3 301 45.7 301 22.8 301L0 301Z" fill="#35858B"></path><path d="M0 239L22.8 235.3C45.7 231.7 91.3 224.3 137 224.7C182.7 225 228.3 233 274 233.2C319.7 233.3 365.3 225.7 411.2 226.7C457 227.7 503 237.3 548.8 237.7C594.7 238 640.3 229 686 225.3C731.7 221.7 777.3 223.3 823 225.8C868.7 228.3 914.3 231.7 937.2 233.3L960 235L960 301L937.2 301C914.3 301 868.7 301 823 301C777.3 301 731.7 301 686 301C640.3 301 594.7 301 548.8 301C503 301 457 301 411.2 301C365.3 301 319.7 301 274 301C228.3 301 182.7 301 137 301C91.3 301 45.7 301 22.8 301L0 301Z" fill="#35858B"></path><path d="M0 257L22.8 257.3C45.7 257.7 91.3 258.3 137 259.7C182.7 261 228.3 263 274 261.8C319.7 260.7 365.3 256.3 411.2 256.5C457 256.7 503 261.3 548.8 259.3C594.7 257.3 640.3 248.7 686 244.7C731.7 240.7 777.3 241.3 823 241.3C868.7 241.3 914.3 240.7 937.2 240.3L960 240L960 301L937.2 301C914.3 301 868.7 301 823 301C777.3 301 731.7 301 686 301C640.3 301 594.7 301 548.8 301C503 301 457 301 411.2 301C365.3 301 319.7 301 274 301C228.3 301 182.7 301 137 301C91.3 301 45.7 301 22.8 301L0 301Z" fill="#35858B"></path><path d="M0 274L22.8 272.3C45.7 270.7 91.3 267.3 137 267.8C182.7 268.3 228.3 272.7 274 273.2C319.7 273.7 365.3 270.3 411.2 270.2C457 270 503 273 548.8 275.7C594.7 278.3 640.3 280.7 686 280.8C731.7 281 777.3 279 823 279.5C868.7 280 914.3 283 937.2 284.5L960 286L960 301L937.2 301C914.3 301 868.7 301 823 301C777.3 301 731.7 301 686 301C640.3 301 594.7 301 548.8 301C503 301 457 301 411.2 301C365.3 301 319.7 301 274 301C228.3 301 182.7 301 137 301C91.3 301 45.7 301 22.8 301L0 301Z" fill="#35858B"></path></svg>