<svg id="visual" viewBox="0 0 900 600" width="900" height="600" xmlns="http://www.w3.org/2000/svg" xmlns:xlink="http://www.w3.org/1999/xlink" version="1.1"><g fill="none" stroke="#35858B" stroke-width="5"><path d="M0 -59.5L13.3 -18.4L56.6 -18.4L21.6 7L35 48.1L0 22.7L-35 48.1L-21.6 7L-56.6 -18.4L-13.3 -18.4Z" transform="translate(786 298)"></path><path d="M0 -30.2L6.8 -9.3L28.7 -9.3L11 3.6L17.8 24.4L0 11.5L-17.8 24.4L-11 3.6L-28.7 -9.3L-6.8 -9.3Z" transform="translate(574 523)"></path><path d="M0 -47.2L10.6 -14.6L44.9 -14.6L17.1 5.6L27.7 38.2L0 18L-27.7 38.2L-17.1 5.6L-44.9 -14.6L-10.6 -14.6Z" transform="translate(145 286)"></path><path d="M0 -49.1L11 -15.2L46.7 -15.2L17.8 5.8L28.8 39.7L0 18.7L-28.8 39.7L-17.8 5.8L-46.7 -15.2L-11 -15.2Z" transform="translate(155 110)"></path><path d="M0 -32.1L7.2 -9.9L30.5 -9.9L11.7 3.8L18.9 26L0 12.3L-18.9 26L-11.7 3.8L-30.5 -9.9L-7.2 -9.9Z" transform="translate(399 497)"></path><path d="M0 -53.8L12.1 -16.6L51.2 -16.6L19.5 6.4L31.6 43.5L0 20.5L-31.6 43.5L-19.5 6.4L-51.2 -16.6L-12.1 -16.6Z" transform="translate(386 170)"></path><path d="M0 -51L11.4 -15.7L48.5 -15.7L18.5 6L30 41.2L0 19.5L-30 41.2L-18.5 6L-48.5 -15.7L-11.4 -15.7Z" transform="translate(258 438)"></path><path d="M0 -53.8L12.1 -16.6L51.2 -16.6L19.5 6.4L31.6 43.5L0 20.5L-31.6 43.5L-19.5 6.4L-51.2 -16.6L-12.1 -16.6Z" transform="translate(662 337)"></path><path d="M0 -53.8L12.1 -16.6L51.2 -16.6L19.5 6.4L31.6 43.5L0 20.5L-31.6 43.5L-19.5 6.4L-51.2 -16.6L-12.1 -16.6Z" transform="translate(307 53)"></path><path d="M0 -47.2L10.6 -14.6L44.9 -14.6L17.1 5.6L27.7 38.2L0 18L-27.7 38.2L-17.1 5.6L-44.9 -14.6L-10.6 -14.6Z" transform="translate(360 352)"></path><path d="M0 -51L11.4 -15.7L48.5 -15.7L18.5 6L30 41.2L0 19.5L-30 41.2L-18.5 6L-48.5 -15.7L-11.4 -15.7Z" transform="translate(508 267)"></path></g></svg>